<?xml version="1.0" standalone="no"?>
<!DOCTYPE svg PUBLIC "-//W3C//DTD SVG 20010904//EN"
 "http://www.w3.org/TR/2001/REC-SVG-20010904/DTD/svg10.dtd">
<svg version="1.0" xmlns="http://www.w3.org/2000/svg"
 width="11811.000000pt" height="11811.000000pt" viewBox="0 0 11811.000000 11811.000000"
 preserveAspectRatio="xMidYMid meet">

<g transform="translate(0.000000,11811.000000) scale(0.100000,-0.100000)"
fill="#000000" stroke="none">
<path d="M43991 82558 c-22 -35 -1298 -2045 -2835 -4468 l-2795 -4405 22912
-5 22912 -5 -10696 -17030 -10696 -17030 17365 -3 c9551 -1 17367 -1 17368 1
2 2 -1681 8037 -1741 8314 l-16 73 -8022 2 -8022 3 8177 12830 c4498 7057
8207 12882 8242 12945 141 255 349 690 483 1010 35 85 91 214 123 285 248 551
391 1082 456 1690 22 203 25 785 6 980 -70 688 -227 1255 -511 1841 -270 554
-591 1004 -1031 1445 -258 258 -493 453 -780 648 -820 556 -1736 868 -2735
931 -107 7 -8086 10 -24142 10 l-23983 0 -39 -62z"/>
<path d="M52378 70258 c-8 -13 -4296 -6811 -9528 -15108 -5232 -8297 -9571
-15176 -9641 -15288 l-128 -202 5821 2 5820 3 7155 11785 c3935 6482 8117
13370 9293 15308 l2138 3522 -5458 0 -5458 0 -14 -22z"/>
</g>
</svg>
