<?xml version="1.0" standalone="no"?>
<!DOCTYPE svg PUBLIC "-//W3C//DTD SVG 20010904//EN"
 "http://www.w3.org/TR/2001/REC-SVG-20010904/DTD/svg10.dtd">
<svg version="1.0" xmlns="http://www.w3.org/2000/svg"
 width="11811.000000pt" height="11811.000000pt" viewBox="0 0 11811.000000 11811.000000"
 preserveAspectRatio="xMidYMid meet">

<g transform="translate(0.000000,11811.000000) scale(0.100000,-0.100000)"
fill="#000000" stroke="none">
<path d="M57655 116339 c-1961 -81 -3894 -586 -5620 -1468 -1162 -594 -2170
-1304 -3140 -2212 -272 -254 -44095 -44084 -44252 -44259 -181 -200 -286 -322
-422 -485 -2243 -2689 -3357 -6158 -3106 -9670 148 -2064 766 -4075 1797
-5850 526 -904 1133 -1717 1864 -2495 221 -235 44028 -44039 44199 -44196
1138 -1043 2356 -1845 3715 -2447 1494 -661 3015 -1031 4710 -1144 359 -24
1261 -24 1620 0 1883 126 3579 575 5205 1377 1161 573 2160 1255 3158 2158
225 202 44197 44174 44399 44399 903 998 1585 1997 2158 3158 750 1520 1205
3156 1349 4855 38 437 45 638 45 1160 0 522 -7 723 -45 1160 -189 2229 -918
4360 -2130 6231 -444 686 -933 1309 -1515 1929 -217 232 -44025 44036 -44199
44197 -1472 1351 -3148 2335 -5010 2943 -1525 497 -3179 725 -4780 659z
m34500 -33729 c999 -63 1915 -375 2735 -931 287 -195 522 -390 780 -648 440
-441 761 -891 1031 -1445 284 -586 441 -1153 511 -1841 19 -195 16 -777 -6
-980 -65 -608 -208 -1139 -456 -1690 -32 -71 -88 -200 -123 -285 -134 -320
-342 -755 -483 -1010 -35 -63 -3744 -5888 -8242 -12945 l-8177 -12830 8022 -3
8022 -2 16 -73 c60 -277 1743 -8312 1741 -8314 -1 -2 -7817 -2 -17368 -1
l-17365 3 10696 17030 10696 17030 -22912 5 -22912 5 2795 4405 c1537 2423
2813 4433 2835 4468 l39 62 23983 0 c16056 0 24035 -3 24142 -10z m-43787
-12339 c-1 -5 -4183 -6894 -9293 -15310 l-9289 -15301 -5814 0 c-3302 0 -5812
4 -5810 9 2 5 4345 6894 9653 15310 l9650 15301 5453 0 c3157 0 5452 -4 5450
-9z m29757 -163 c-58 -95 -4240 -6984 -9294 -15308 l-9188 -15135 -5821 -3
-5821 -2 118 187 c65 104 4399 6976 9631 15273 5232 8297 9524 15102 9537
15123 l23 37 5460 0 5460 0 -105 -172z"/>
</g>
</svg>
