<svg width="15828" height="16190" viewBox="0 0 15828 16190" fill="none" xmlns="http://www.w3.org/2000/svg">
<path d="M7742.31 916.487C7480.84 927.287 7223.11 994.62 6992.97 1112.22C6838.04 1191.42 6703.64 1286.09 6574.31 1407.15C6538.04 1441.02 694.974 7285.02 674.04 7308.35C649.907 7335.02 635.907 7351.29 617.774 7373.02C318.707 7731.55 170.174 8194.09 203.64 8662.35C223.374 8937.55 305.774 9205.69 443.24 9442.35C513.374 9562.89 594.307 9671.29 691.774 9775.02C721.24 9806.35 6562.17 15646.9 6584.97 15667.8C6736.71 15806.9 6899.11 15913.8 7080.31 15994.1C7279.51 16082.2 7482.31 16131.6 7708.31 16146.6C7756.17 16149.8 7876.44 16149.8 7924.31 16146.6C8175.37 16129.8 8401.51 16070 8618.31 15963C8773.11 15886.6 8906.31 15795.7 9039.37 15675.3C9069.37 15648.4 14932.3 9785.42 14959.2 9755.42C15079.6 9622.35 15170.6 9489.15 15247 9334.35C15347 9131.69 15407.6 8913.55 15426.8 8687.02C15431.9 8628.75 15432.8 8601.95 15432.8 8532.35C15432.8 8462.75 15431.9 8435.95 15426.8 8377.69C15401.6 8080.49 15304.4 7796.35 15142.8 7546.89C15083.6 7455.42 15018.4 7372.35 14940.8 7289.69C14911.9 7258.75 9070.84 1418.22 9047.64 1396.75C8851.37 1216.62 8627.91 1085.42 8379.64 1004.35C8176.31 938.087 7955.77 907.687 7742.31 916.487ZM12342.3 5413.69C12475.5 5422.09 12597.6 5463.69 12707 5537.82C12745.2 5563.82 12776.6 5589.82 12811 5624.22C12869.6 5683.02 12912.4 5743.02 12948.4 5816.89C12986.3 5895.02 13007.2 5970.62 13016.6 6062.35C13019.1 6088.35 13018.7 6165.95 13015.8 6193.02C13007.1 6274.09 12988 6344.89 12955 6418.35C12950.7 6427.82 12943.2 6445.02 12938.6 6456.35C12920.7 6499.02 12893 6557.02 12874.2 6591.02C12869.5 6599.42 12375 7376.09 11775.2 8317.02L10685 10027.7L11754.6 10028.1L12824.2 10028.4L12826.3 10038.1C12834.3 10075 13058.7 11146.4 13058.4 11146.6C13058.3 11146.9 12016.2 11146.9 10742.7 11146.8L8427.37 11146.4L9853.51 8875.69L11279.6 6605.02L8224.71 6604.35L5169.77 6603.69L5542.44 6016.35C5747.37 5693.29 5917.51 5425.29 5920.44 5420.62L5925.64 5412.35H9123.37C11264.2 5412.35 12328 5412.75 12342.3 5413.69ZM6504.04 7058.89C6503.91 7059.55 5946.31 7978.09 5264.97 9100.22L4026.44 11140.4H3251.24C2810.97 11140.4 2476.31 11139.8 2476.57 11139.2C2476.84 11138.5 3055.91 10220 3763.64 9097.82L5050.31 7057.69H5777.37C6198.31 7057.69 6504.31 7058.22 6504.04 7058.89ZM10471.6 7080.62C10463.9 7093.29 9906.31 8011.82 9232.44 9121.69L8007.37 11139.7L7231.24 11140.1L6455.11 11140.4L6470.84 11115.4C6479.51 11101.6 7057.37 10185.3 7754.97 9079.02C8452.57 7972.75 9024.84 7065.42 9026.57 7062.62L9029.64 7057.69H9757.64H10485.6L10471.6 7080.62Z" fill="white"/>
<rect x="40" y="4" width="67.4062" height="30" rx="3" fill="white"/>
<rect x="40.5" y="4.5" width="66.4062" height="29" rx="2.5" stroke="black" stroke-opacity="0.2"/>
<path d="M47.7656 14V22H46.8438V14H47.7656ZM51.8916 22.125C51.3499 22.125 50.8747 21.9961 50.4658 21.7383C50.0596 21.4805 49.7419 21.1198 49.5127 20.6562C49.2861 20.1927 49.1729 19.651 49.1729 19.0312C49.1729 18.4062 49.2861 17.8607 49.5127 17.3945C49.7419 16.9284 50.0596 16.5664 50.4658 16.3086C50.8747 16.0508 51.3499 15.9219 51.8916 15.9219C52.4333 15.9219 52.9072 16.0508 53.3135 16.3086C53.7223 16.5664 54.04 16.9284 54.2666 17.3945C54.4958 17.8607 54.6104 18.4062 54.6104 19.0312C54.6104 19.651 54.4958 20.1927 54.2666 20.6562C54.04 21.1198 53.7223 21.4805 53.3135 21.7383C52.9072 21.9961 52.4333 22.125 51.8916 22.125ZM51.8916 21.2969C52.3031 21.2969 52.6416 21.1914 52.9072 20.9805C53.1729 20.7695 53.3695 20.4922 53.4971 20.1484C53.6247 19.8047 53.6885 19.4323 53.6885 19.0312C53.6885 18.6302 53.6247 18.2565 53.4971 17.9102C53.3695 17.5638 53.1729 17.2839 52.9072 17.0703C52.6416 16.8568 52.3031 16.75 51.8916 16.75C51.4801 16.75 51.1416 16.8568 50.876 17.0703C50.6104 17.2839 50.4137 17.5638 50.2861 17.9102C50.1585 18.2565 50.0947 18.6302 50.0947 19.0312C50.0947 19.4323 50.1585 19.8047 50.2861 20.1484C50.4137 20.4922 50.6104 20.7695 50.876 20.9805C51.1416 21.1914 51.4801 21.2969 51.8916 21.2969ZM58.4395 24.375C57.9941 24.375 57.6113 24.3177 57.291 24.2031C56.9707 24.0911 56.7038 23.9427 56.4902 23.7578C56.2793 23.5755 56.1113 23.3802 55.9863 23.1719L56.7207 22.6563C56.804 22.7656 56.9095 22.8906 57.0371 23.0312C57.1647 23.1745 57.3392 23.2982 57.5605 23.4023C57.7845 23.5091 58.0775 23.5625 58.4395 23.5625C58.9238 23.5625 59.3236 23.4453 59.6387 23.2109C59.9538 22.9766 60.1113 22.6094 60.1113 22.1094V20.8906H60.0332C59.9655 21 59.8691 21.1354 59.7441 21.2969C59.6217 21.4557 59.4447 21.5977 59.2129 21.7227C58.9837 21.8451 58.6738 21.9062 58.2832 21.9062C57.7988 21.9062 57.3639 21.7917 56.9785 21.5625C56.5957 21.3333 56.2923 21 56.0684 20.5625C55.847 20.125 55.7363 19.5937 55.7363 18.9687C55.7363 18.3542 55.8444 17.819 56.0605 17.3633C56.2767 16.9049 56.5775 16.5508 56.9629 16.3008C57.3483 16.0482 57.7936 15.9219 58.2988 15.9219C58.6895 15.9219 58.9993 15.987 59.2285 16.1172C59.4603 16.2448 59.6374 16.3906 59.7598 16.5547C59.8848 16.7161 59.9811 16.849 60.0488 16.9531H60.1426V16H61.0332V22.1719C61.0332 22.6875 60.916 23.1068 60.6816 23.4297C60.4499 23.7552 60.1374 23.9935 59.7441 24.1445C59.3535 24.2982 58.9186 24.375 58.4395 24.375ZM58.4082 21.0781C58.778 21.0781 59.0905 20.9935 59.3457 20.8242C59.6009 20.6549 59.7949 20.4115 59.9277 20.0938C60.0605 19.776 60.127 19.3958 60.127 18.9531C60.127 18.5208 60.0618 18.1393 59.9316 17.8086C59.8014 17.4779 59.6087 17.2187 59.3535 17.0312C59.0983 16.8437 58.7832 16.75 58.4082 16.75C58.0176 16.75 57.6921 16.849 57.4316 17.0469C57.1738 17.2448 56.9798 17.5104 56.8496 17.8438C56.722 18.1771 56.6582 18.5469 56.6582 18.9531C56.6582 19.3698 56.7233 19.7383 56.8535 20.0586C56.9863 20.3763 57.1816 20.6263 57.4395 20.8086C57.6999 20.9883 58.0228 21.0781 58.4082 21.0781ZM65.1582 22.125C64.6165 22.125 64.1413 21.9961 63.7324 21.7383C63.3262 21.4805 63.0085 21.1198 62.7793 20.6562C62.5527 20.1927 62.4395 19.651 62.4395 19.0312C62.4395 18.4062 62.5527 17.8607 62.7793 17.3945C63.0085 16.9284 63.3262 16.5664 63.7324 16.3086C64.1413 16.0508 64.6165 15.9219 65.1582 15.9219C65.6999 15.9219 66.1738 16.0508 66.5801 16.3086C66.9889 16.5664 67.3066 16.9284 67.5332 17.3945C67.7624 17.8607 67.877 18.4062 67.877 19.0312C67.877 19.651 67.7624 20.1927 67.5332 20.6562C67.3066 21.1198 66.9889 21.4805 66.5801 21.7383C66.1738 21.9961 65.6999 22.125 65.1582 22.125ZM65.1582 21.2969C65.5697 21.2969 65.9082 21.1914 66.1738 20.9805C66.4395 20.7695 66.6361 20.4922 66.7637 20.1484C66.8913 19.8047 66.9551 19.4323 66.9551 19.0312C66.9551 18.6302 66.8913 18.2565 66.7637 17.9102C66.6361 17.5638 66.4395 17.2839 66.1738 17.0703C65.9082 16.8568 65.5697 16.75 65.1582 16.75C64.7467 16.75 64.4082 16.8568 64.1426 17.0703C63.877 17.2839 63.6803 17.5638 63.5527 17.9102C63.4251 18.2565 63.3613 18.6302 63.3613 19.0312C63.3613 19.4323 63.4251 19.8047 63.5527 20.1484C63.6803 20.4922 63.877 20.7695 64.1426 20.9805C64.4082 21.1914 64.7467 21.2969 65.1582 21.2969ZM72.7217 18.1406V19H69.2217V18.1406H72.7217ZM75.2656 18.3906V22H74.3438V16H75.2344V16.9375H75.3125C75.4531 16.6328 75.6667 16.388 75.9531 16.2031C76.2396 16.0156 76.6094 15.9219 77.0625 15.9219C77.4688 15.9219 77.8242 16.0052 78.1289 16.1719C78.4336 16.3359 78.6706 16.5859 78.8398 16.9219C79.0091 17.2552 79.0938 17.6771 79.0938 18.1875V22H78.1719V18.25C78.1719 17.7786 78.0495 17.4115 77.8047 17.1484C77.5599 16.8828 77.224 16.75 76.7969 16.75C76.5026 16.75 76.2396 16.8138 76.0078 16.9414C75.7786 17.069 75.5977 17.2552 75.4648 17.5C75.332 17.7448 75.2656 18.0417 75.2656 18.3906ZM83.2158 22.125C82.6742 22.125 82.1989 21.9961 81.79 21.7383C81.3838 21.4805 81.0661 21.1198 80.8369 20.6562C80.6104 20.1927 80.4971 19.651 80.4971 19.0312C80.4971 18.4062 80.6104 17.8607 80.8369 17.3945C81.0661 16.9284 81.3838 16.5664 81.79 16.3086C82.1989 16.0508 82.6742 15.9219 83.2158 15.9219C83.7575 15.9219 84.2314 16.0508 84.6377 16.3086C85.0465 16.5664 85.3643 16.9284 85.5908 17.3945C85.82 17.8607 85.9346 18.4062 85.9346 19.0312C85.9346 19.651 85.82 20.1927 85.5908 20.6562C85.3643 21.1198 85.0465 21.4805 84.6377 21.7383C84.2314 21.9961 83.7575 22.125 83.2158 22.125ZM83.2158 21.2969C83.6273 21.2969 83.9658 21.1914 84.2314 20.9805C84.4971 20.7695 84.6937 20.4922 84.8213 20.1484C84.9489 19.8047 85.0127 19.4323 85.0127 19.0312C85.0127 18.6302 84.9489 18.2565 84.8213 17.9102C84.6937 17.5638 84.4971 17.2839 84.2314 17.0703C83.9658 16.8568 83.6273 16.75 83.2158 16.75C82.8044 16.75 82.4658 16.8568 82.2002 17.0703C81.9346 17.2839 81.738 17.5638 81.6104 17.9102C81.4827 18.2565 81.4189 18.6302 81.4189 19.0312C81.4189 19.4323 81.4827 19.8047 81.6104 20.1484C81.738 20.4922 81.9346 20.7695 82.2002 20.9805C82.4658 21.1914 82.8044 21.2969 83.2158 21.2969ZM87.3418 22V16H88.2637V22H87.3418ZM87.8105 15C87.6309 15 87.4759 14.9388 87.3457 14.8164C87.2181 14.694 87.1543 14.5469 87.1543 14.375C87.1543 14.2031 87.2181 14.056 87.3457 13.9336C87.4759 13.8112 87.6309 13.75 87.8105 13.75C87.9902 13.75 88.1439 13.8112 88.2715 13.9336C88.4017 14.056 88.4668 14.2031 88.4668 14.375C88.4668 14.5469 88.4017 14.694 88.2715 14.8164C88.1439 14.9388 87.9902 15 87.8105 15ZM89.9521 22V16H90.8428V16.9062H90.9053C91.0146 16.6094 91.2126 16.3685 91.499 16.1836C91.7855 15.9987 92.1084 15.9062 92.4678 15.9062C92.5355 15.9062 92.6201 15.9076 92.7217 15.9102C92.8232 15.9128 92.9001 15.9167 92.9521 15.9219V16.8594C92.9209 16.8516 92.8493 16.8398 92.7373 16.8242C92.6279 16.806 92.512 16.7969 92.3896 16.7969C92.098 16.7969 91.8376 16.8581 91.6084 16.9805C91.3818 17.1003 91.2021 17.2669 91.0693 17.4805C90.9391 17.6914 90.874 17.9323 90.874 18.2031V22H89.9521ZM99.9355 14V22H98.9668V15.0156H98.9199L96.9668 16.3125V15.3281L98.9668 14H99.9355Z" fill="black"/>
</svg>
