<svg width="15748" height="15748" viewBox="0 0 15748 15748" fill="none" xmlns="http://www.w3.org/2000/svg">
<path d="M5865.47 4740.27C5862.53 4744.93 5692.4 5012.93 5487.47 5336L5114.8 5923.33L8169.73 5924L11224.7 5924.67L9798.53 8195.33L8372.4 10466L10687.7 10466.4C11961.2 10466.5 13003.3 10466.5 13003.5 10466.3C13003.7 10466 12779.3 9394.67 12771.3 9357.73L12769.2 9348L11699.6 9347.73L10630 9347.33L11720.3 7636.67C12320 6695.73 12814.5 5919.07 12819.2 5910.67C12838 5876.67 12865.7 5818.67 12883.6 5776C12888.3 5764.67 12895.7 5747.47 12900 5738C12933.1 5664.53 12952.1 5593.73 12960.8 5512.67C12963.7 5485.6 12964.1 5408 12961.6 5382C12952.3 5290.27 12931.3 5214.67 12893.5 5136.53C12857.5 5062.67 12814.7 5002.67 12756 4943.87C12721.6 4909.47 12690.3 4883.47 12652 4857.47C12542.7 4783.33 12420.5 4741.73 12287.3 4733.33C12273.1 4732.4 11209.2 4732 9068.4 4732H5870.67L5865.47 4740.27Z" fill="white"/>
<path d="M6983.73 6380.27C6982.67 6382 6410.93 7288.4 5713.33 8394.67C5015.73 9500.93 4437.2 10418.1 4427.87 10433.1L4410.8 10460L5186.93 10459.7L5962.93 10459.3L6916.93 8888C7441.6 8023.73 7999.2 7105.33 8156 6846.93L8441.07 6377.33H7713.33H6985.6L6983.73 6380.27Z" fill="white"/>
</svg>
